<svg role="img" viewBox="0 0 24 24" xmlns="http://www.w3.org/2000/svg" fill="currentColor">
  <path d="M23.45 5.948c.166-.546 0-.948-.795-.948h-2.625c-.668 0-.976.347-1.143.73 0 0-1.335 3.196-3.226 5.27-.61.61-.89.804-1.224.804-.166 0-.407-.194-.407-.75V5.948c0-.668-.192-.948-.748-.948H9.156c-.417 0-.668.31-.668.602 0 .633.948.78 1.042 2.56v3.867c0 .847-.153.999-.487.999-.89 0-3.06-3.21-4.335-6.89-.253-.73-.507-1.026-1.177-1.026H.907c-.75 0-.9.347-.9.73 0 .684.877 4.076 4.085 8.561C6.233 17.51 9.1 19 11.71 19c1.563 0 1.756-.351 1.756-1.025v-2.352c0-.704.149-.844.646-.844.366 0 1 .184 2.472 1.608 1.682 1.682 1.958 2.613 2.91 2.613h2.625c.75 0 1.126-.375.91-1.117-.238-.737-1.094-1.801-2.23-3.076-.61-.719-1.526-1.492-1.804-1.881-.39-.496-.28-.71 0-1.156 0 0 3.14-4.426 3.468-5.918z"/>
</svg>
